<svg xmlns="http://www.w3.org/2000/svg" viewBox="0 0 71.93 71.93"><defs><style>.cls-1{fill:#fff;}.cls-2{fill:#1a4789;}.cls-3{fill:#a4802d;}.cls-4,.cls-5{fill:#f7c133;}.cls-5{opacity:0.99;}</style></defs><g id="Layer_2" data-name="Layer 2"><g id="Layer_2-2" data-name="Layer 2"><path class="cls-1" d="M71.26,36A35.29,35.29,0,1,1,36,.68,35.29,35.29,0,0,1,71.26,36Z"/><path class="cls-2" d="M59.86,35.79A24.24,24.24,0,1,1,35.63,11.55,24.24,24.24,0,0,1,59.86,35.79Z"/><path class="cls-3" d="M9.86,47.07a1.94,1.94,0,0,1-.06-.22l.8.32.06.39a.86.86,0,0,1-.55,1l-1.35.52a4.78,4.78,0,0,0,0,.49,5.43,5.43,0,0,1-.11,1c0,.11-.05.2-.07.29L10.92,50l1,.79L8.34,52.13l-1-.79a9,9,0,0,0,.63-.84,2.17,2.17,0,0,0,.17-.73c0-.1,0-.25,0-.45l-.77.29-1-.82s.11-.08.18-.15a2.72,2.72,0,0,0,.59-.59,1.85,1.85,0,0,0,.23-.47,2.49,2.49,0,0,0,.11-.29l.19.09A2.89,2.89,0,0,1,8,47.6a2.71,2.71,0,0,1,.34.33l.06.09,1.31-.5C9.87,47.46,9.92,47.31,9.86,47.07ZM8.07,48.14A.22.22,0,0,0,8,48a1.44,1.44,0,0,0-.14-.3l0,0a1.11,1.11,0,0,1-.09.35,1.45,1.45,0,0,1-.11.22Z"/><path class="cls-3" d="M12.78,52.18a1.15,1.15,0,0,1,.09.29.54.54,0,0,1-.22.52l-.11.07a1.93,1.93,0,0,1-.7,0,1.32,1.32,0,0,0-1,.32,1.29,1.29,0,0,0-.28,1.11l.13.74.12,0a.4.4,0,0,0,.29-.09,1.62,1.62,0,0,0,.47-.84.71.71,0,0,1,.27-.42,1.06,1.06,0,0,1,.78-.15,2.3,2.3,0,0,1,.44.1s0,0,0,0a1.14,1.14,0,0,1,0-.37.15.15,0,0,1,.05-.1h.05l1.06.22a1.38,1.38,0,0,0-.13.31.85.85,0,0,0,.15.69,1.07,1.07,0,0,0,.49.36.76.76,0,0,0,.54.06l-.17.06a1.59,1.59,0,0,1-.36,0,1,1,0,0,1-.23-.05l-.2,0a1.13,1.13,0,0,1,0,.18,1.77,1.77,0,0,1,0,.62.5.5,0,0,1-.13.23l-2,1.45L11,57l2.25-1.66c.16-.11.2-.34.12-.68a1.26,1.26,0,0,0-.14-.35l-.12-.21s-.07,0-.15,0a2.42,2.42,0,0,0-.58,1,.74.74,0,0,1-.22.28,1.5,1.5,0,0,1-.93.19,4.34,4.34,0,0,1-1-.16l-.48-.16a2.17,2.17,0,0,1-.09-.45c-.11-.89,0-1.49.44-1.79a1.54,1.54,0,0,1,.85-.16,1.54,1.54,0,0,0,.8-.14.42.42,0,0,0,.14-.5L11.8,52Z"/><path class="cls-3" d="M16.59,57.53l-1.51-1.32,1.16-.07L18,57.64l-2.54,2.92-1.28-.22Z"/><path class="cls-3" d="M19.53,58.56l2,1.36-2.17,3.15-1.48-.15-.11-.09a2.2,2.2,0,0,1-.4-.5,1,1,0,0,1-.13-.46,2.46,2.46,0,0,1,0-.28l.89,0a2,2,0,0,0-.1.18.46.46,0,0,0,0,.38,1,1,0,0,0,.28.38s.05,0,.06,0L20.12,60l-1.64-1.14Z"/><path class="cls-3" d="M20.19,58.31a.92.92,0,0,0,.4.06l.27,0a4.11,4.11,0,0,1-.43.1,1.43,1.43,0,0,1-.77-.05l-.11-.06a2.24,2.24,0,0,1-.61-.56l-.22-.36.39-.1a3.91,3.91,0,0,1,.94-.07,2.45,2.45,0,0,1,1.26.3,3.53,3.53,0,0,1,1.28,1.5c0,.08.1.2.17.36l-1,.2a1.44,1.44,0,0,0,0-.31,1.94,1.94,0,0,0-.42-.82,3.64,3.64,0,0,0-.93-.87,2.19,2.19,0,0,0-.6-.25l-.24,0c0,.13,0,.25.07.37A1.36,1.36,0,0,0,20.19,58.31Z"/><path class="cls-3" d="M22.66,60.68a4.19,4.19,0,0,1,.28.33.71.71,0,0,1,.15.68,1.34,1.34,0,0,1-.46.36,1.17,1.17,0,0,0-.51.59A1.9,1.9,0,0,0,22,63a2,2,0,0,0,.16,1.17c.1.19.2.38.31.57l.14-.08a1,1,0,0,0,.24-.36,2,2,0,0,0,.08-1,1.08,1.08,0,0,1,.09-.6,1.89,1.89,0,0,1,.93-1c.41-.23.7-.32.86-.25l1.72.68-1.43,3.6L23.82,66l1.39-3.5-1.11-.44c-.06,0-.1,0-.12.06s0,.47-.05,1.06a2.45,2.45,0,0,1-.12.78l0,.09a.08.08,0,0,0,0,0,2.36,2.36,0,0,1-1.66,1l-.41,0a1.28,1.28,0,0,1-.26-.34A2,2,0,0,1,21,63a1.49,1.49,0,0,1,.6-.57,1.31,1.31,0,0,0,.58-.53.46.46,0,0,0-.19-.58l-.25-.18Z"/><path class="cls-3" d="M28.53,62.85a.22.22,0,0,1,.16,0,1,1,0,0,1,.48.31c.16.16.23.26.2.27l-.82.44s0-.08,0-.14a.61.61,0,0,0-.5-.37c-.21,0-.33,0-.35.12a.61.61,0,0,0,.13.42,1.33,1.33,0,0,0,.34.39,1.57,1.57,0,0,0,.55.23,1.19,1.19,0,0,0,.42,0l.17,0-.62.2c-.57.22-.87.45-.92.69s.19.63.74,1l.88.46L30,63.74l1.25-.44-.71,3.45-1.92.64a1.43,1.43,0,0,1-.6-.22c-1-.49-1.47-1-1.36-1.5a0,0,0,0,1,0,0c.06-.24.27-.43.66-.58a5.56,5.56,0,0,1,.58-.14c-.6-.13-.92-.41-1-.84a.32.32,0,0,1,0-.08q.06-.3.63-.69A3.1,3.1,0,0,1,28.53,62.85Z"/><path class="cls-3" d="M33.92,64.43l-2-.13.88-.76,2.28.15-.25,3.86-1.16.6Z"/><path class="cls-3" d="M37.56,68.46a1.43,1.43,0,0,1-.3-.22,1.94,1.94,0,0,1,0-3.28,1.69,1.69,0,0,1,.33-.25L36,64.84l.6-.86,4-.33.31,3.86-1.12.77a6.52,6.52,0,0,1-.43-.63l-.74-1.16a4.75,4.75,0,0,0-.81-1l-.5-.37-.11.26a3,3,0,0,0,0,.67,1.47,1.47,0,0,0,.2.65,2.1,2.1,0,0,0,.63.68,1.05,1.05,0,0,0,.5.14Zm.65-3.8.35.36c.15.16.27.27.33.33l.52.62c.06.08.16.18.29.32l-.14-1.74Z"/><path class="cls-3" d="M39.08,61.78a1.09,1.09,0,0,0-.08.15.48.48,0,0,0-.06.31c0,.26.37.34,1,.24a2,2,0,0,0,.85-.45,6,6,0,0,0,.65-.68c0-.08.13-.19.25-.35-.06.12-.14.29-.27.51a4.32,4.32,0,0,1-.86,1,2.82,2.82,0,0,1-1.43.72,1.79,1.79,0,0,1-1-.15l-.43-.28Z"/><path class="cls-3" d="M42.83,63A.41.41,0,0,1,43,63a.91.91,0,0,1,.57,0c.22.08.32.12.3.15l-.52.77-.09-.11a.6.6,0,0,0-.62-.09c-.2.06-.29.15-.25.27s.13.2.31.31a1.3,1.3,0,0,0,.48.18,1.45,1.45,0,0,0,.59,0,1.38,1.38,0,0,0,.39-.18.61.61,0,0,0,.14-.1,5,5,0,0,0-.45.46c-.41.46-.57.81-.51,1s.46.47,1.14.57h1l-.89-3.09.89-1,1,3.39L45,67a1.66,1.66,0,0,1-.64.08c-1.12,0-1.75-.2-1.9-.7v0a.88.88,0,0,1,.31-.82,3.47,3.47,0,0,1,.45-.39c-.6.16-1,.06-1.25-.29a.34.34,0,0,1,0-.08,1.34,1.34,0,0,1,.23-.9A3.38,3.38,0,0,1,42.83,63Z"/><path class="cls-3" d="M47.21,62l-.21.08.24-.83.38-.1a.88.88,0,0,1,1.06.46l.63,1.3.5,0a4.71,4.71,0,0,1,1,0l.3,0L50,60.71l.7-1.11,1.69,3.48-.69,1.09a8.41,8.41,0,0,0-.89-.55,2.65,2.65,0,0,0-.75-.1c-.1,0-.25,0-.45,0l.36.74-.72,1.11-.16-.17a3.1,3.1,0,0,0-.64-.54,2.35,2.35,0,0,0-.49-.18l-.31-.08a1.56,1.56,0,0,1,.08-.21,2.25,2.25,0,0,1,.18-.35,2.51,2.51,0,0,1,.31-.37l.07-.07-.61-1.26C47.59,62,47.44,61.94,47.21,62Zm1.22,1.68s-.06,0-.13,0a1.38,1.38,0,0,0-.29.17l0,0a.92.92,0,0,1,.35.06l.23.08Z"/><path class="cls-3" d="M52.34,58.75a1.29,1.29,0,0,1,.29-.09.54.54,0,0,1,.53.2.58.58,0,0,1,.07.11,1.79,1.79,0,0,1,0,.7,1.36,1.36,0,0,0,.34,1c.18.22.56.3,1.11.26l.74-.15a.41.41,0,0,0,0-.12.4.4,0,0,0-.1-.3,1.55,1.55,0,0,0-.85-.44.84.84,0,0,1-.43-.27,1.08,1.08,0,0,1-.16-.77,3.1,3.1,0,0,1,.09-.44h0a.78.78,0,0,1-.37,0,.12.12,0,0,1-.1,0,.07.07,0,0,1,0-.05l.19-1.06.32.12a.83.83,0,0,0,.69-.17,1.16,1.16,0,0,0,.35-.5.87.87,0,0,0,0-.54l.06.17a2.52,2.52,0,0,1,0,.37s0,.09,0,.22l0,.2.17,0a1.57,1.57,0,0,1,.62,0,.38.38,0,0,1,.23.12l1.5,1.94-.5,1.17L55.46,58.2c-.12-.16-.35-.2-.69-.11a1.71,1.71,0,0,0-.35.15l-.2.12s0,.07.05.15a2.34,2.34,0,0,0,1,.56.78.78,0,0,1,.29.21,1.49,1.49,0,0,1,.21.93,4.25,4.25,0,0,1-.14,1c0,.11-.08.27-.15.49a1.83,1.83,0,0,1-.44.09c-.89.13-1.49,0-1.8-.4a1.47,1.47,0,0,1-.18-.84,1.43,1.43,0,0,0-.16-.79.42.42,0,0,0-.51-.13l-.23.09Z"/><path class="cls-3" d="M52.85,57.23a.76.76,0,0,0,.16-.37,2.07,2.07,0,0,0,.06-.26c0,.17,0,.32,0,.43a1.48,1.48,0,0,1-.24.73l-.1.1a2.35,2.35,0,0,1-.69.44l-.41.12c0-.09,0-.22,0-.4a3.83,3.83,0,0,1,.17-.93A2.51,2.51,0,0,1,52.41,56a3.54,3.54,0,0,1,1.78-.86l.4-.07-.07,1a1.12,1.12,0,0,0-.3-.08,2,2,0,0,0-.89.19,3.59,3.59,0,0,0-1.09.68,2.31,2.31,0,0,0-.39.51,1.12,1.12,0,0,0-.1.22l.37,0A1.43,1.43,0,0,0,52.85,57.23Z"/><path class="cls-3" d="M58.6,52l3,2.43-.17,1.29-2.91-2.34-1.69,2.1c.09.09.21.19.35.31a1.12,1.12,0,0,0,.82,0l.48-.19,0-.08a.51.51,0,0,0-.14-.15c-.1-.09-.26-.08-.48,0l-.09.05-.12-.85a1.39,1.39,0,0,1,.26-.14.47.47,0,0,1,.47,0,.46.46,0,0,1,.13.2,2.54,2.54,0,0,1,.12.91c0,.58,0,.91.11,1a.8.8,0,0,0,.84.12,2,2,0,0,0,.39-.25l.21.84-.23.17a1.38,1.38,0,0,1-1,.15.67.67,0,0,1-.19-.1.71.71,0,0,1-.24-.45v-.55c-.61.28-1.07.3-1.37.06a1.93,1.93,0,0,1-.56-1.74,1.39,1.39,0,0,1,.07-.45Z"/><path class="cls-3" d="M63.85,51.94a1.4,1.4,0,0,1-.34.14,1.93,1.93,0,0,1-2.83-1.66,1.23,1.23,0,0,1,0-.41l-.7,1.43-.44-1,1.77-3.61,3.47,1.7.09,1.36c-.07,0-.33,0-.76,0L62.7,50a4.4,4.4,0,0,0-1.24.21l-.57.24.16.23a2.59,2.59,0,0,0,.56.37,1.47,1.47,0,0,0,.66.17,2.27,2.27,0,0,0,.91-.2,1,1,0,0,0,.37-.36Zm-2.93-2.5.48-.12.45-.11.8-.13.43-.09-1.57-.76Z"/><path class="cls-3" d="M8.39,21.25a.94.94,0,0,1,.3-.22c.15-.09.24-.13.25-.11l.18,1H9a.55.55,0,0,0-.24.09,1.37,1.37,0,0,0-.26.29c-.05.07,0,.14.14.23a.81.81,0,0,0,.51.13l.62-.06A3.77,3.77,0,0,0,11.19,22l.25-.23L8.88,20.27,7.41,22.73l-.34-1,1.71-2.88,3.09,1.84-.12,2s0,0,0,0a1.41,1.41,0,0,1-.53.36,4.53,4.53,0,0,1-1.13.41A1.52,1.52,0,0,1,9,23.39a1.87,1.87,0,0,1-.66-.83,1.24,1.24,0,0,1,0-1.18Z"/><path class="cls-3" d="M11.35,16.86l.26-.11a.53.53,0,0,1,.5.08c.21.17.24.66.09,1.44-.06.26,0,.43.07.52a.73.73,0,0,0,.67.16c.2-.11.41-.22.6-.34l.12.95c0,.05-.11.15-.39.28a1.1,1.1,0,0,1-.78.13.47.47,0,0,1-.2-.1.9.9,0,0,1-.27-.65c0-.15,0-.29,0-.44-.62.3-1.08.32-1.38.07-.47-.38-.58-1.06-.34-2.05.09-.34.16-.52.23-.55l.35-.05a.89.89,0,0,0,.56-.26.94.94,0,0,0,.18-.61,3.51,3.51,0,0,0,0-.37l.31-.19a1.25,1.25,0,0,1,.57-.21,1,1,0,0,1,.48.23l2.24,1.84-.2,1.3-2.75-2.25c-.1-.09-.29,0-.58.19,0,.13-.05.25-.08.37a1.73,1.73,0,0,1-.33.63,1.51,1.51,0,0,1-.56.3,2.08,2.08,0,0,1-.35.11q0,.16.06.27a.77.77,0,0,0,.23.41l.06,0a1.37,1.37,0,0,0,.85,0l.58-.19a.06.06,0,0,1,0,0l-.09-.1a.45.45,0,0,0-.54,0l-.12.08Z"/><path class="cls-3" d="M15.44,18.58c-.21-.2-.17-.45.11-.73s.54-.34.76-.14.17.45-.11.74S15.66,18.79,15.44,18.58Z"/><path class="cls-3" d="M15.26,13a1.41,1.41,0,0,1,.28-.07.54.54,0,0,1,.47.16c.18.21.13.69-.16,1.44-.1.25-.1.42,0,.52a.75.75,0,0,0,.64.28l.65-.23-.05,1c0,.06-.14.13-.43.21a1.14,1.14,0,0,1-.8,0,.46.46,0,0,1-.18-.13.9.9,0,0,1-.14-.69c0-.14.05-.28.07-.42-.66.17-1.11.12-1.37-.18-.39-.45-.38-1.15,0-2.08.14-.32.25-.48.33-.5h.35a.82.82,0,0,0,.59-.16,1,1,0,0,0,.28-.57,1.48,1.48,0,0,0,0-.36l.35-.14a1.18,1.18,0,0,1,.59-.1,1,1,0,0,1,.44.3l1.88,2.2-.42,1.25L16.35,12c-.08-.1-.28-.07-.6.1l-.15.34a1.65,1.65,0,0,1-.43.57,1.8,1.8,0,0,1-.61.2l-.36,0a2.18,2.18,0,0,0,0,.28.94.94,0,0,0,.16.45l.05.05a1.4,1.4,0,0,0,.84.11l.61-.09a.06.06,0,0,1,0,0l-.07-.11a.41.41,0,0,0-.52-.09l-.13.06Z"/><path class="cls-3" d="M19.58,9.59l-1.74,1.07.31-1.13,2-1.23,2,3.26-.64,1.17Z"/><path class="cls-3" d="M21.6,8.29l.46-.9.4,0c.29.07.47.17.53.32l0,0A3,3,0,0,1,22.85,9a1.1,1.1,0,0,0,0,.63l.06.11a1.25,1.25,0,0,0,.76.53,1.56,1.56,0,0,0,1,.06c.07,0,.16-.11.29-.29s.18-.28.17-.31l-1-2.44.81-1.07L26.13,9l-.63.45.25,0a1.2,1.2,0,0,1,.7.12c.11.06.17.1.16.11l-.45.89a1,1,0,0,0-1.1-.3.89.89,0,0,0-.44.59c-.08.26-.13.4-.13.42H24c-.91,0-1.45-.29-1.64-.74a1.07,1.07,0,0,1,0-.71,2.78,2.78,0,0,0,.19-1.11.14.14,0,0,1,0-.06s0,0,0,0A.58.58,0,0,0,22,8.26,1.55,1.55,0,0,0,21.6,8.29Z"/><path class="cls-3" d="M22.92,6c-.1,0-.17-.1-.18-.16s0,0,0-.08l.67-.93a1.19,1.19,0,0,1,.63-.34l.15,0a1.2,1.2,0,0,1,.44,0c.19,0,.31.06.33.13a.11.11,0,0,1,0,.11L24.3,5.72c-.06.12-.25.22-.56.32a1.35,1.35,0,0,1-.27.07A1,1,0,0,1,22.92,6Zm.31-.66a.26.26,0,0,0,.14.18,1.28,1.28,0,0,0,.53,0l.18,0a.6.6,0,0,0,.34-.25.36.36,0,0,0,.06-.15V5c0-.12-.19-.16-.46-.1L23.76,5a1.31,1.31,0,0,0-.49.26A.2.2,0,0,1,23.23,5.35Z"/><path class="cls-3" d="M36.74,4.61a1.12,1.12,0,0,1,.33.16c.16.09.23.15.22.17l-.8.62a1.23,1.23,0,0,0-.08-.12.7.7,0,0,0-.19-.17,1.63,1.63,0,0,0-.37-.08c-.09,0-.13.06-.14.23a.86.86,0,0,0,.12.51c.14.23.26.4.34.51a3.61,3.61,0,0,0,1.2,1l.32.12.14-3L35,4.44l.71-.77L39,3.82l-.16,3.6-1.79.82h0A1.59,1.59,0,0,1,36.46,8a4.7,4.7,0,0,1-.9-.82,1.49,1.49,0,0,1-.43-1,1.75,1.75,0,0,1,.42-1,1.25,1.25,0,0,1,1-.58Z"/><path class="cls-3" d="M37.84,8.4l.12,0a1,1,0,0,1,.59.37.22.22,0,0,1,.06.16l-.09.68-1.1.43.11-.87A.28.28,0,0,0,37.48,9a.48.48,0,0,0-.29-.1.5.5,0,0,0-.17,0Z"/><path class="cls-3" d="M41.78,4.38a2,2,0,0,1,.26.27.71.71,0,0,1,.18.63l0,.06,0,.07a1.74,1.74,0,0,1-.57.51,1.23,1.23,0,0,0-.49.52.61.61,0,0,0,0,.3,2.59,2.59,0,0,0,.77,1.34,1.72,1.72,0,0,0,.74.41c.07,0,.1,0,.11,0l1-4.12L45,4,43.91,8.6,41.9,9c-.07,0-.27-.07-.58-.27C40.4,8.18,40,7.55,40.2,6.85a.93.93,0,0,1,.38-.51c.47-.36.72-.6.75-.74a.29.29,0,0,0,0-.09.52.52,0,0,0-.22-.44l-.25-.18Z"/><path class="cls-3" d="M46.14,6.49l-.2-.11L46.73,6l.33.22a.86.86,0,0,1,.38,1.09l-.55,1.32a4.12,4.12,0,0,0,.36.35,4.75,4.75,0,0,1,.67.76l.18.25,1-2.28,1.31-.19-1.48,3.53-1.31.17a7.7,7.7,0,0,0-.2-1A2.6,2.6,0,0,0,47,9.6c-.06-.08-.17-.19-.31-.34l-.32.75L45,10.18c0-.06,0-.14,0-.23a3,3,0,0,0,0-.83,2.14,2.14,0,0,0-.19-.49l-.15-.28.21-.08a2.46,2.46,0,0,1,.39-.08,2.11,2.11,0,0,1,.49,0l.1,0,.54-1.28C46.43,6.75,46.36,6.61,46.14,6.49Zm-.44,2s-.05,0-.12-.07a1.51,1.51,0,0,0-.32-.11.06.06,0,0,0,0,0,1.08,1.08,0,0,1,.2.3l.09.23Z"/><path class="cls-3" d="M49.1,6a.3.3,0,0,1,0-.24s0,0,.07,0l1.14-.15A1.26,1.26,0,0,1,51,5.8l.14.08a1.18,1.18,0,0,1,.32.29c.12.15.17.27.13.33a.13.13,0,0,1-.1.07l-1.21.26a1.17,1.17,0,0,1-.62-.19l-.23-.15A.93.93,0,0,1,49.1,6Zm.68-.23a.23.23,0,0,0,0,.22,1.38,1.38,0,0,0,.36.4l.15.1a.6.6,0,0,0,.42.08l.15-.06,0,0c.06-.12,0-.25-.24-.4l-.24-.15a1.12,1.12,0,0,0-.52-.17Z"/><path class="cls-3" d="M54.31,16.07l2.38-2.19a.4.4,0,0,0,.15-.36,1.71,1.71,0,0,0-.15-.35,2,2,0,0,0-.12-.2l1,0L60,15.56l-2.81,2.59-1.27-.39,2.71-2.5-1-1.11,0,.47-2,1.85Z"/><path class="cls-3" d="M58.37,20a.76.76,0,0,0,.09.23l.08.15L57.6,20c-.11,0-.18-.24-.22-.62s0-.49.12-.56L60.12,17l1.22.56-2.87,2A.32.32,0,0,0,58.37,20Z"/><path class="cls-3" d="M59,21l1,.37a.81.81,0,0,0-.19,1.11.74.74,0,0,0,.47.42.63.63,0,0,0,.4-.09,1.88,1.88,0,0,0,.81-1,3.31,3.31,0,0,0,.11-2.35q0-.11-.12-.33l1.07.27,1.66,3-1.1-.31-.49-.89a2,2,0,0,1-.08.34,2.24,2.24,0,0,1-1,1.41,1.42,1.42,0,0,1-.44.17,2.54,2.54,0,0,1-2-.65.31.31,0,0,1-.09-.11,1.47,1.47,0,0,1-.13-.83C58.93,21.17,59,21,59,21Z"/><path class="cls-3" d="M36,71.93a36,36,0,1,1,36-36A36,36,0,0,1,36,71.93ZM36,1.35A34.62,34.62,0,1,0,70.58,36,34.66,34.66,0,0,0,36,1.35Z"/><path class="cls-3" d="M36,70.28A34.32,34.32,0,1,1,70.28,36,34.36,34.36,0,0,1,36,70.28ZM36,2a34,34,0,1,0,34,34A34,34,0,0,0,36,2Z"/><path class="cls-3" d="M35.63,61.39a25.6,25.6,0,1,1,25.6-25.6A25.63,25.63,0,0,1,35.63,61.39Zm0-50.85A25.25,25.25,0,1,0,60.87,35.79,25.28,25.28,0,0,0,35.63,10.54Z"/><path class="cls-3" d="M5.94,36.59a.82.82,0,1,1,.81-.82A.82.82,0,0,1,5.94,36.59Zm0-1.52a.7.7,0,1,0,0,1.4.7.7,0,0,0,0-1.4Z"/><path class="cls-3" d="M7.52,34.83c-.36-.26-.83.09-.83.09h0l0,0c.39-.41-.05-1.25-.05-1.25A9.1,9.1,0,0,1,6,32.35a6.4,6.4,0,0,1-.74,1.33c-.48.8,0,1.2,0,1.2h0l0,0c-.12-.07-.54-.3-.85-.08a6,6,0,0,1-1.17,1,5.1,5.1,0,0,1,.83.58s.61.69,1.14.23h0c0,.07-.34.49.1,1.22A6.27,6.27,0,0,1,6,39.16a9.58,9.58,0,0,1,.59-1.31s.5-.85.12-1.26h0c.53.46,1.14-.23,1.14-.23a5.67,5.67,0,0,1,.83-.58A6,6,0,0,1,7.52,34.83Zm-1.58,2a1,1,0,1,1,1-1A1,1,0,0,1,5.94,36.79Z"/><path class="cls-3" d="M65.67,36.59a.82.82,0,1,1,.81-.82A.82.82,0,0,1,65.67,36.59Zm0-1.52a.7.7,0,1,0,0,1.4.7.7,0,0,0,0-1.4Z"/><path class="cls-3" d="M67.26,34.83c-.37-.26-.83.09-.83.09h0l0,0c.38-.41,0-1.25,0-1.25a9.1,9.1,0,0,1-.59-1.3A6.34,6.34,0,0,1,65,33.68c-.47.8,0,1.2,0,1.2h0l0,0c-.12-.07-.55-.3-.86-.08a5.74,5.74,0,0,1-1.17,1,5.39,5.39,0,0,1,.84.58s.6.69,1.13.23h0c-.06.07-.34.49.09,1.22a6.21,6.21,0,0,1,.75,1.34,9.58,9.58,0,0,1,.59-1.31s.5-.85.12-1.26h0c.53.46,1.13-.23,1.13-.23a5.39,5.39,0,0,1,.84-.58A5.74,5.74,0,0,1,67.26,34.83Zm-1.59,2a1,1,0,1,1,1-1A1,1,0,0,1,65.67,36.79Z"/><path class="cls-3" d="M35.63,60.59a24.81,24.81,0,1,1,24.8-24.8A24.83,24.83,0,0,1,35.63,60.59Zm0-48.47A23.67,23.67,0,1,0,59.29,35.79,23.69,23.69,0,0,0,35.63,12.12Z"/><path class="cls-4" d="M30.06,49.7a2.24,2.24,0,0,0-1.4,2.16,3.71,3.71,0,0,0,1.48,2.89,3.34,3.34,0,0,0,1.87.68s.88.18,1.65-1.7a9.87,9.87,0,0,0,.41-2.52l.25.3s-.07,2.6-1.21,3.72c0,0-.61,1.12-2.39.2a3.85,3.85,0,0,1-2.24-3.51s0-2,1.62-2.46A.34.34,0,0,1,30.06,49.7Z"/><path class="cls-4" d="M41.45,44.05a3.08,3.08,0,0,0-2.73,2.28,3.74,3.74,0,0,0,.18,2.19,3.63,3.63,0,0,1,0,2.11,2,2,0,0,0,1.41-1.76,6.69,6.69,0,0,0-.06-2.26,2,2,0,0,1,1.28-1.91Z"/><path class="cls-4" d="M45.21,45.58l-.43-.64a1.87,1.87,0,0,0,.53-1.59s-.1-.71-.69-.69c0,0-.85.07-.5,1.13a1.6,1.6,0,0,1-1.33-1.51s0-.78.51-1c0,0,.54-.42,1-.14,0,0-.25-.94.95-2.12a3.55,3.55,0,0,1,1.58-1.11,1.68,1.68,0,0,0-.66.9,3.16,3.16,0,0,0,0,1.39,1.77,1.77,0,0,1-.46,1.44s.08.15.41-.3c0,0,.23-.35.52-.26,0,0-.38,0-.25.93a3.61,3.61,0,0,1,0,2A5.92,5.92,0,0,1,45.21,45.58Z"/><path class="cls-4" d="M44.14,37.68a6.41,6.41,0,0,0-.35-4.45,2.69,2.69,0,0,1-.34,1.57,3.88,3.88,0,0,0-.64,1.25.86.86,0,0,0-.47-.68s.18.42-.15.62a2.33,2.33,0,0,0-.44,1.06,1.29,1.29,0,0,0,.26.84s0-.62.47-.61c0,0,.51,0,.48.83a5,5,0,0,1-.62,1.65,2.19,2.19,0,0,0-.57-1.14,1.25,1.25,0,0,0-1.15-.18A9.63,9.63,0,0,1,40.94,36s.38-1.14,1.26-1.2a.76.76,0,0,1,.58.5,2,2,0,0,1,.3-.78s.79-1.25-.4-4.23A3.68,3.68,0,0,1,42.43,32s-.42.82-.21,1.2a.52.52,0,0,1-.22.62,1,1,0,0,0-.24-.77s.09.39-.06.49a4,4,0,0,0-.74,1s-.89-1.14-3.51-1.45l.13.42a3.93,3.93,0,0,1,1.81.66,1.17,1.17,0,0,1,.12.88,1.33,1.33,0,0,1,.72,1s.05,1,.05,1.91a3.88,3.88,0,0,1-.54,2.3.72.72,0,0,1-.32.2s-.27.09-.18.3a.27.27,0,0,0,.38.19,1.93,1.93,0,0,0,.85-1.18,3.48,3.48,0,0,0,.16-1,.71.71,0,0,1,1,.28,2.44,2.44,0,0,1,.24,1.38s-.17,1.13-.3,1.79a5.86,5.86,0,0,0,0,2.61A2,2,0,0,0,43,46.28a1.2,1.2,0,0,0,.87-.06.79.79,0,0,0-.27-.52A1.31,1.31,0,0,1,42,44.51a5.4,5.4,0,0,1,.61-3.69A16,16,0,0,0,44.14,37.68Zm-3.67-2.19a1.71,1.71,0,0,0-.54-.71,1.06,1.06,0,0,0-.06-.54,2.43,2.43,0,0,1,.85.66A1.69,1.69,0,0,0,40.47,35.49Z"/><path class="cls-4" d="M25.85,45.5l.55-.63a1.7,1.7,0,0,1-.5-1.52s.1-.71.69-.69c0,0,.85.07.5,1.13a1.6,1.6,0,0,0,1.33-1.51s0-.78-.51-1c0,0-.54-.42-1-.14,0,0,.25-.94-1-2.12a3.55,3.55,0,0,0-1.58-1.11,1.68,1.68,0,0,1,.66.9,3.16,3.16,0,0,1,0,1.39,1.77,1.77,0,0,0,.46,1.44s-.08.15-.42-.3c0,0-.22-.35-.51-.26,0,0,.38,0,.25.93a3.51,3.51,0,0,0,0,2A4.2,4.2,0,0,0,25.85,45.5Z"/><path class="cls-4" d="M28.62,40.82a5.4,5.4,0,0,1,.61,3.69,1.32,1.32,0,0,1-1.54,1.23.88.88,0,0,0-.31.48,1.2,1.2,0,0,0,.87.06,1.94,1.94,0,0,0,1.4-1.44,5.77,5.77,0,0,0,0-2.61c-.14-.66-.3-1.79-.3-1.79a2.35,2.35,0,0,1,.24-1.38.71.71,0,0,1,1-.28,3.48,3.48,0,0,0,.16,1A2,2,0,0,0,31.58,41a.28.28,0,0,0,.39-.19c.09-.21-.18-.3-.18-.3a.78.78,0,0,1-.33-.2,3.93,3.93,0,0,1-.53-2.3c0-.86.05-1.91.05-1.91a1.33,1.33,0,0,1,.72-1,1.17,1.17,0,0,1,.12-.88,4.09,4.09,0,0,1,1.88-.66l.13-.42a5.61,5.61,0,0,0-3.58,1.45,4,4,0,0,0-.74-1c-.15-.1-.06-.49-.06-.49a1,1,0,0,0-.24.77.52.52,0,0,1-.22-.62c.21-.38-.21-1.2-.21-1.2a3.68,3.68,0,0,1-.25-1.71c-1.19,3-.4,4.23-.4,4.23a2,2,0,0,1,.3.78.75.75,0,0,1,.57-.5c.89.06,1.26,1.2,1.26,1.2a9.37,9.37,0,0,1,.33,2.46,1.27,1.27,0,0,0-1.16.18,2.22,2.22,0,0,0-.56,1.14,5,5,0,0,1-.62-1.65c0-.78.48-.83.48-.83.44,0,.47.61.47.61a1.29,1.29,0,0,0,.26-.84A2.33,2.33,0,0,0,29,36c-.33-.2-.15-.62-.15-.62a.86.86,0,0,0-.47.68,3.88,3.88,0,0,0-.64-1.25,2.69,2.69,0,0,1-.34-1.57,6.41,6.41,0,0,0-.35,4.45A16,16,0,0,0,28.62,40.82Zm1.87-5.92a2.43,2.43,0,0,1,.85-.66,1.06,1.06,0,0,0-.06.54,1.71,1.71,0,0,0-.54.71A1.69,1.69,0,0,0,30.49,34.9Z"/><path class="cls-4" d="M36.07,13.51a.42.42,0,1,1-.41-.42A.42.42,0,0,1,36.07,13.51Z"/><path class="cls-4" d="M35.66,14.1s.48,2.56.62,3.45c0,0-.43.39-.64.62a2.91,2.91,0,0,0-.69-.58S35.18,16.28,35.66,14.1Z"/><path class="cls-4" d="M28.82,51a1.89,1.89,0,0,0,1.74-1.31,1.48,1.48,0,0,0-.3-1.3,1.29,1.29,0,0,0-1.19-.34,1.28,1.28,0,0,1,1.24-.61,1.69,1.69,0,0,1,1.23,1.36,2.55,2.55,0,0,1-.46,1.94,2.68,2.68,0,0,1-2.44,1.08Z"/><path class="cls-4" d="M41.66,45.12a1.65,1.65,0,0,0-.79,1.58s.06.71.13,1.24a3.17,3.17,0,0,1-.31,1.83,3.54,3.54,0,0,1-1.28,1.17,7.65,7.65,0,0,1-1.3.5s.18-.4.3-.77a3,3,0,0,0,0-1.8s-.12-.43-.24-1a3.45,3.45,0,0,1,.33-2.5A3.52,3.52,0,0,1,41.4,43.6v.24a3.6,3.6,0,0,0-2.6,1.41,3.65,3.65,0,0,0-.5,2s.16.91.29,1.52c0,0,.38,1.65-.11,2.3a3.25,3.25,0,0,0,1.9-1.27,2.62,2.62,0,0,0,.4-1.76,9.1,9.1,0,0,1-.13-1.54,2.12,2.12,0,0,1,1-1.57Z"/><path class="cls-4" d="M28.91,50.78a1.6,1.6,0,0,0,1.35-1.06,1.13,1.13,0,0,0-.46-1.31,1.63,1.63,0,0,0-1-.06A1.35,1.35,0,0,1,30,47.17a1.91,1.91,0,0,1,1.75,1.29,3,3,0,0,1-.13,2,3.06,3.06,0,0,1-3,1.59l0,.2a3.18,3.18,0,0,0,2.79-1.12,2.9,2.9,0,0,0,.48-2.84A2.13,2.13,0,0,0,30,47a1.52,1.52,0,0,0-1.46,1.66s.86-.41,1.3.06a1,1,0,0,1,0,1.32s-.52.55-.88.53Z"/><path class="cls-4" d="M27.94,50.35a2.93,2.93,0,0,1-1.15-2.2,3,3,0,0,1,1.61-2.69,3.49,3.49,0,0,1,3.19.09,5.49,5.49,0,0,1,2,2.19,5,5,0,0,1,.49,1.89l.28.26a5.59,5.59,0,0,0-1.09-3,4.72,4.72,0,0,0-2.88-2,3.8,3.8,0,0,0-2.31.44,3.31,3.31,0,0,0-1.5,2.31,3.27,3.27,0,0,0,1.25,2.91Z"/><path class="cls-4" d="M30.13,49.34a2.29,2.29,0,0,0-1.76,2,4,4,0,0,0,.5,2.7,4.46,4.46,0,0,0,2.62,2,1.89,1.89,0,0,0,1.59-.37,4.27,4.27,0,0,0,1.39-2.78,4.65,4.65,0,0,0,.13-1.1,12.82,12.82,0,0,1,1.23,1.91A6.64,6.64,0,0,1,34.6,56.6a2.2,2.2,0,0,1-2.4.88,6.81,6.81,0,0,1-3.6-2.82,4.84,4.84,0,0,1-.74-2.74,3.21,3.21,0,0,1,1-2.31A2.63,2.63,0,0,1,30.08,49Z"/><path class="cls-4" d="M32,48.62a5,5,0,0,1,2.49,1.32s1.47,1.34,2.27,2.23c0,0,1.35,1.54,1.7,1.89,0,0,.49.51.74.51,0,0,.24.15,1.69-1.24a10.49,10.49,0,0,0,2.21-3.16A7.87,7.87,0,0,0,44,47.25s.06-1.38-.74-1.86A2.17,2.17,0,0,0,42.09,45L42,44.83s.54-.17,1.46.5a2.41,2.41,0,0,1,.72,1.78,7.51,7.51,0,0,1-1,3.4,14.93,14.93,0,0,1-1.73,2.59s-1.57,1.81-2.24,1.77a1,1,0,0,1-.59-.26l-1.58-1.85a23.44,23.44,0,0,0-1.88-2,13.21,13.21,0,0,0-1.88-1.42s-.9-.55-1.29-.49Z"/><path class="cls-4" d="M41.88,44a3.15,3.15,0,0,1,2.35,1,3.84,3.84,0,0,1,.89,2.6,8.65,8.65,0,0,1-.65,3.13,12.66,12.66,0,0,1-1.6,2.9,21,21,0,0,1-2.18,2.47,8.44,8.44,0,0,1-1.44,1.06s-.5.31-1.21-.48a4.19,4.19,0,0,1-.79-1.41,34.11,34.11,0,0,0-1.86-3.22S33.76,50,32.05,49.57L32.1,49a5.29,5.29,0,0,1,2.65,1.6,15.86,15.86,0,0,1,2,2.18s.93,1.23,1.31,1.67c0,0,.54.67,1,.68,0,0,.59.17,1.71-.93a12.09,12.09,0,0,0,2.3-2.88,9.46,9.46,0,0,0,1.27-3.19A3.44,3.44,0,0,0,44,45.62a2.51,2.51,0,0,0-2.06-1Z"/><path class="cls-4" d="M41.81,43.59a3.81,3.81,0,0,1,2.4.86,3.77,3.77,0,0,1,1.17,1.76,5.24,5.24,0,0,1,.14,2.7,10.86,10.86,0,0,1-1.4,3.77,23.38,23.38,0,0,1-1.74,2.55,15.29,15.29,0,0,1-2,1.92s-.87.79-1.42.72c0,0-1,.11-1.82-1.4,0,0-.6-1.22-.94-1.93a19.2,19.2,0,0,0-1.73-2.78A5.32,5.32,0,0,0,32,50v-.2a5.45,5.45,0,0,1,2.37,1.52A10.87,10.87,0,0,1,36,53.54s.62,1.08.9,1.74c0,0,.34.67.59,1.1a2.89,2.89,0,0,0,1,1.09,1.12,1.12,0,0,0,1.15,0A12.07,12.07,0,0,0,42,55.33a19.14,19.14,0,0,0,2.08-3,12.67,12.67,0,0,0,1.14-3.09A5.4,5.4,0,0,0,45.08,46a3.88,3.88,0,0,0-1.3-1.66,4.14,4.14,0,0,0-2-.57Z"/><path class="cls-4" d="M30,48.84a3.17,3.17,0,0,0-1.94,1.56,4.05,4.05,0,0,0-.24,2.91,7.28,7.28,0,0,0,1.72,2.77A6.05,6.05,0,0,0,33,57.77,2.6,2.6,0,0,0,34.59,57,7.24,7.24,0,0,0,36,54.19l.13.18A8.68,8.68,0,0,1,34.75,57a2.27,2.27,0,0,1-1.85.9,4.1,4.1,0,0,1-2.35-.87,6.6,6.6,0,0,1-2.58-3,4.48,4.48,0,0,1-.46-2.27,3.68,3.68,0,0,1,1.2-2.44,3.07,3.07,0,0,1,1.23-.64Z"/><path class="cls-4" d="M34.67,50.13a6.3,6.3,0,0,0-1.38-3.7,5,5,0,0,0-2.19-1.6,4.31,4.31,0,0,0-2.35-.09,3.47,3.47,0,0,0-2.05,1.61,3.73,3.73,0,0,0-.32,2.45,3.39,3.39,0,0,0,1.38,2l-.18.73a3.3,3.3,0,0,1-1.77-2.07,4.52,4.52,0,0,1,.1-3.18A4.13,4.13,0,0,1,29.12,44s1.38-.46,3.49,1a8.1,8.1,0,0,1,2.29,2.48s1.34,2.32,1.15,3.92Z"/><path class="cls-4" d="M27.59,51.68a3.51,3.51,0,0,1-2.1-2.51,4.31,4.31,0,0,1,.1-2.91A4,4,0,0,1,28.1,44a4.88,4.88,0,0,1,3.42.17,9.52,9.52,0,0,1,3,2.39,10.19,10.19,0,0,1,1.62,3.08,9.07,9.07,0,0,1,.3,2.36l.22.23A8.5,8.5,0,0,0,35,46.93a7.86,7.86,0,0,0-3.9-3.13,5,5,0,0,0-3.32,0,4.28,4.28,0,0,0-2.71,3.37,4.79,4.79,0,0,0,.71,3.29,3.3,3.3,0,0,0,1.76,1.42Z"/><path class="cls-4" d="M35.62,18.81s0-.35.68-.71a1,1,0,0,0,.43-.38,1.72,1.72,0,0,1-.32,1.4,5.94,5.94,0,0,0-.77,1.07Z"/><path class="cls-4" d="M35.63,18.81s0-.35-.67-.71a1.06,1.06,0,0,1-.43-.38,1.7,1.7,0,0,0,.33,1.4,5.29,5.29,0,0,1,.78,1.07Z"/><path class="cls-4" d="M34,20.18h1.24A3.37,3.37,0,0,0,34.31,19,1.22,1.22,0,0,1,34,20.18Z"/><path class="cls-4" d="M37.3,20.18H36.06A3.37,3.37,0,0,1,37,19,1.22,1.22,0,0,0,37.3,20.18Z"/><path class="cls-5" d="M37.57,20.51H33.69a.5.5,0,0,0-.5.51.5.5,0,0,0,.5.5h3.88a.5.5,0,0,0,.51-.5A.51.51,0,0,0,37.57,20.51Zm-3.81.74s-.52-.25,0-.54l.73,0s-.25.33.06.51Zm2.41,0H35.09a.28.28,0,0,1,0-.55h1.08a.28.28,0,0,1,0,.55Zm1.33,0h-.81c.31-.18.06-.51.06-.51l.73,0C38,21,37.5,21.25,37.5,21.25Z"/><path class="cls-4" d="M33.64,21.71h1.7A11.55,11.55,0,0,0,34.43,23a1.63,1.63,0,0,0-.23-.56A8.55,8.55,0,0,1,33.64,21.71Z"/><path class="cls-4" d="M37.51,21.75l-1.7-.07A10.83,10.83,0,0,1,36.68,23a1.87,1.87,0,0,1,.25-.55S37.46,21.85,37.51,21.75Z"/><path class="cls-4" d="M35.07,42.64H36s.08.16-.06.2v.37s-.07.13-.14.13h-.57s-.11-.06-.09-.16v-.37A.11.11,0,0,1,35.07,42.64Z"/><path class="cls-4" d="M35.24,43.45h.56l0,.15s.19.11.08.41c0,0-.32.71-.37.77a5.26,5.26,0,0,1-.42-1,.3.3,0,0,1,.11-.24Z"/><rect class="cls-4" x="35.17" y="40.22" width="0.78" height="0.5"/><path class="cls-4" d="M33.8,38.37a2,2,0,0,0-.2,1.44,2,2,0,0,0,1.15,1.39,2.12,2.12,0,0,0,2.18-.34,2,2,0,0,0,.48-2.41,2,2,0,0,0,.18-1.6,1.18,1.18,0,0,1,.28.8.78.78,0,0,0,.1-.54,1,1,0,0,1,.36.82s0,.34-.56.78c0,0-.11.42.17.28,0,0,.68-.49.66-1,0,0,.48.65.24,1.13a1.92,1.92,0,0,1-.37.55.4.4,0,0,0,.39-.28s.19.83-.86,1a1.08,1.08,0,0,1-.46,0s-.19.2,0,.26a1.21,1.21,0,0,0,1.15-.17,1.87,1.87,0,0,1-.72,1,1.29,1.29,0,0,1-.49,0,.38.38,0,0,0,.41.15.75.75,0,0,1-.86.36,1.78,1.78,0,0,1-.74-.62s-.3-.06-.24.24a1,1,0,0,0,.92.62,1.36,1.36,0,0,1-1.08.28,1.08,1.08,0,0,1-.54-.43.82.82,0,0,0,.15.45s-.44.07-.84-.65a.86.86,0,0,1,0-.54s-.06-.3-.3-.07c0,0-.25.36.15,1.06,0,0-1.21-.22-1-1.12a.69.69,0,0,0-.18.45,1.1,1.1,0,0,1-.21-1.17s.21-.44.42-.48c0,0,0-.28-.17-.24a1.33,1.33,0,0,0-.7,1.08s-.71-1,0-1.72c0,0-.33.07-.42.25,0,0,0-1,.69-1.06,0,0,.4,0,.52.18,0,0,.21-.17,0-.33a.73.73,0,0,0-1,0,1.29,1.29,0,0,1,.9-1,.39.39,0,0,1,.23.42A1,1,0,0,0,33.8,38.37Z"/><path class="cls-4" d="M33.85,38.65a2,2,0,0,0,0,1.19,2,2,0,0,0,1.34,1.29,2,2,0,0,0,1.75-.57,1.75,1.75,0,0,0,.42-1.82l-.26.22a1.8,1.8,0,0,1-.27,1.21,1.56,1.56,0,0,1-1.2.68,1.65,1.65,0,0,1-1.4-.89,2.08,2.08,0,0,1-.09-1Z"/><path class="cls-4" d="M35.25,40.07h.64a.25.25,0,0,0,.12-.18v-.26s0-.23.43-.42a2.46,2.46,0,0,0,.71-.49,1,1,0,0,0,.3-.7s.17-.12,0-.17h-.63a.49.49,0,0,1-.43.54s-.45,0-.51-.34v-.48a.12.12,0,0,0,.1,0s.06-.12,0-.17h-.74s-.09,0-.08.09a.13.13,0,0,0,.1.13v.49a.49.49,0,0,1-.49.34.46.46,0,0,1-.38-.54H33.7s-.06.12.06.14a1.44,1.44,0,0,0,.68,1l.33.14a.51.51,0,0,1,.39.46V40A.15.15,0,0,0,35.25,40.07Z"/><path class="cls-4" d="M33.58,37.17l0-.52a2.79,2.79,0,0,0-.48.46S33.48,37.09,33.58,37.17Z"/><path class="cls-4" d="M35.09,37.09a2.7,2.7,0,0,0-.72-.7,1.38,1.38,0,0,1,.64-.22A1.92,1.92,0,0,1,35.09,37.09Z"/><path class="cls-4" d="M36.75,37.71a1.41,1.41,0,0,0-.66-.48L36,36.07S36.83,36.39,36.75,37.71Z"/><path class="cls-4" d="M36.85,36.67s.18-.3-.22-.42Z"/><path class="cls-4" d="M34.44,37.59a1.29,1.29,0,0,1,.63-.28,3.68,3.68,0,0,0-.67-.48Z"/><path class="cls-4" d="M34.58,38.15a2,2,0,0,1,.55-.34.3.3,0,0,0-.06-.26s-.45.17-.56.36C34.51,37.91,34.46,38.11,34.58,38.15Z"/><path class="cls-4" d="M36.15,37.56a1.44,1.44,0,0,1,.51.38.15.15,0,0,1-.15.24,1.56,1.56,0,0,0-.4-.33S36.07,37.65,36.15,37.56Z"/><path class="cls-4" d="M35.21,37.13h.72s.1-.06,0-.18v-.46s.15-.16,0-.26h-.7s-.14.16,0,.25v.45S35.16,37,35.21,37.13Z"/><path class="cls-4" d="M33.7,37.65h.62v-.52h-.65s-.06.12.09.13v.26S33.65,37.6,33.7,37.65Z"/><path class="cls-4" d="M37.51,37.65h-.62v-.52h.65s.06.12-.09.13v.26S37.56,37.6,37.51,37.65Z"/><path class="cls-4" d="M37,36.94h.52s0-.83.14-1.75a2.57,2.57,0,0,0-.08-1.25,5.54,5.54,0,0,1-.26-.88,3.76,3.76,0,0,1-.25.77,2.6,2.6,0,0,0-.15,1.35S37,36.67,37,36.94Z"/><path class="cls-4" d="M34.31,36.94h-.52s0-.83-.14-1.75a2.57,2.57,0,0,1,.08-1.25,5.54,5.54,0,0,0,.26-.88,3.76,3.76,0,0,0,.25.77,2.6,2.6,0,0,1,.15,1.35S34.31,36.67,34.31,36.94Z"/><path class="cls-4" d="M35.27,36.05h.65s.19-2.15.21-2.45a4.78,4.78,0,0,0,0-1.4s-.34-1.05-.54-1.54c0,0-.34,1-.5,1.54a2.63,2.63,0,0,0,0,1.39S35.33,35.79,35.27,36.05Z"/><path class="cls-4" d="M34.55,34.78a2.9,2.9,0,0,0,.62.12v.4a1.73,1.73,0,0,1-.66-.08Z"/><path class="cls-4" d="M36.08,34.91l0,.39a2.71,2.71,0,0,0,.77-.08,1.6,1.6,0,0,1,0-.44A1.41,1.41,0,0,1,36.08,34.91Z"/><path class="cls-4" d="M37.77,34.51a2.61,2.61,0,0,1,0,.48,5.9,5.9,0,0,0,1.65-.9L39,33.81A3.32,3.32,0,0,1,37.77,34.51Z"/><path class="cls-4" d="M32.14,33.9a7.4,7.4,0,0,0,1.34.58l0,.43a4.26,4.26,0,0,1-1.64-.77Z"/><path class="cls-4" d="M33.09,23.76a47.39,47.39,0,0,1,5,0s-.79-1-.58-1.48a6.86,6.86,0,0,0-.93,1.34,7,7,0,0,1-1-1.66,7.12,7.12,0,0,1-.94,1.64,5.71,5.71,0,0,0-1-1.23A1.81,1.81,0,0,1,33.09,23.76Z"/><path class="cls-4" d="M39,24.57a.8.8,0,0,0-.7-.57c-2-.14-5.5,0-5.5,0a.79.79,0,0,0-.57.65c.12.44.79.54.79.54,2-.15,5.39,0,5.39,0C39.06,25.06,39,24.57,39,24.57Zm-6.09.3s-.28-.1-.28-.32a.43.43,0,0,1,.31-.31s.32,0,1.07,0c0,0-.39.3.05.66Zm3.82,0H34.47c-.68-.33,0-.65,0-.65l2.23,0C37.43,24.52,36.7,24.84,36.7,24.84Zm1.66,0H37.2c.44-.36,0-.66,0-.66.75,0,1.07,0,1.07,0a.43.43,0,0,1,.31.31C38.63,24.77,38.36,24.87,38.36,24.87Z"/><path class="cls-4" d="M39.33,26.68s-4.59-.71-7.31,0a4,4,0,0,0,.78-1.5,4.11,4.11,0,0,1,.9,1.17,10.3,10.3,0,0,0,1-1.18s.73.92,1,1.14a5.28,5.28,0,0,0,1.07-1.15s.81,1,1,1.24a4.59,4.59,0,0,1,.77-1.15A4.4,4.4,0,0,0,39.33,26.68Z"/><path class="cls-4" d="M30.64,28.36s3.85-1.11,10.37,0a4,4,0,0,1-1-1.66A3.47,3.47,0,0,0,39.22,28a11.19,11.19,0,0,1-.71-1.36s-.88,1.17-.93,1.22-.91-1.2-1-1.43a8.92,8.92,0,0,1-1,1.36,14.23,14.23,0,0,1-.94-1.36s-.59,1.09-.73,1.37A14.13,14.13,0,0,0,33,26.55,8.55,8.55,0,0,1,32.31,28a5,5,0,0,0-.9-1.32A2.94,2.94,0,0,1,30.64,28.36Z"/><path class="cls-4" d="M29,30.29s5.54-2.47,13.34,0c0,0-.88-1.33-.8-1.87a6.66,6.66,0,0,0-.79,1.35A16.33,16.33,0,0,1,40,28.28s-.6.89-.83,1.15a8.69,8.69,0,0,1-.71-1.36s-.85,1-.91,1.17l-.93-1.32s-.74.86-1.08,1.22a10.6,10.6,0,0,0-.83-1.23S34.13,29,34,29.15A13.49,13.49,0,0,0,33.05,28s-.57,1-.79,1.32c0,0-.81-1-.95-1.06a15,15,0,0,1-.66,1.4,3.7,3.7,0,0,0-.86-1.27A3.31,3.31,0,0,1,29,30.29Z"/><path class="cls-4" d="M29,30.6s5.23-2.62,13.17,0c0,0,.57,1-2.43,3.26l-.44-.23a8.29,8.29,0,0,0,1.47-1.16A17,17,0,0,0,36,31.65L36,31.43s.75,0,1-.52a1.42,1.42,0,0,0,1.15.8,1.5,1.5,0,0,0,1.34-.62,1.34,1.34,0,0,0,.83,1s.82.3,1.13-.4a.72.72,0,0,0-.33-.9,1.55,1.55,0,0,0-1.64.21,1.27,1.27,0,0,0-1.2-.91,1.51,1.51,0,0,0-1.26.67,1,1,0,0,0-.55-.64,2.15,2.15,0,0,0-1.59,0,1.08,1.08,0,0,0-.48.52,1.18,1.18,0,0,0-.78-.5,1.87,1.87,0,0,0-1.4.34,2.12,2.12,0,0,0-.43.56,2.14,2.14,0,0,0-.65-.49,1.69,1.69,0,0,0-1.43.34.69.69,0,0,0,.2,1.1,1.74,1.74,0,0,0,1.45-.25s.41-.24.44-.58c0,0,.18.39,1,.37a2,2,0,0,0,1.3-.37,2.71,2.71,0,0,0,.33-.34,1.75,1.75,0,0,0,.86.62l-.07.16a14.1,14.1,0,0,0-5,.8,9.64,9.64,0,0,0,1.63,1.26l-.48.27S28.54,32.16,29,30.6Z"/><path class="cls-4" d="M35,33.43l-.76,0-.13-.37a2.7,2.7,0,0,1,.84-.05Z"/><path class="cls-4" d="M36.32,33.08l0,.37a4.58,4.58,0,0,1,.76,0l.15-.39A4.91,4.91,0,0,0,36.32,33.08Z"/></g></g></svg>